<?xml version="1.0"?>
<svg xmlns="http://www.w3.org/2000/svg" viewBox="0 0 512 512" width="512" height="512"><g id="Outline"><path d="M448,272H408V256h24a8,8,0,0,0,6.667-3.578,201.307,201.307,0,0,0,24.83-52.584,199.2,199.2,0,0,0,6.963-33.071,31.924,31.924,0,0,0,1.54-43.9V120a104,104,0,0,0-208,0v72a8,8,0,0,0,8,8c.25,0,.5-.012.755-.036q3.751-.356,7.511-.953a196.81,196.81,0,0,0,13.4,33.464A31.872,31.872,0,0,0,272,224H48a32.036,32.036,0,0,0-32,32V400a32.036,32.036,0,0,0,32,32h53.754L88.239,486.06A8,8,0,0,0,96,496H224a8,8,0,0,0,8-8V456a8,8,0,0,0-8-8h-2.114l3.28-16h41.315l-18.156,61.743,15.35,4.514,17.011-57.851a67.955,67.955,0,0,0,6.636,10.462L288,496.12l16-.24-.72-48a8.012,8.012,0,0,0-1.868-5.02,51.346,51.346,0,0,1-9.719-17.631A31.789,31.789,0,0,0,304,400V288h9.966l5.541,19.394a50.409,50.409,0,0,0,96.985,0l5.542-19.4H432v80a8,8,0,0,0,1.879,5.151,53.789,53.789,0,0,1,8.4,55.88l-24.813,2.757-20.026-10.013,14.713-22.7a23.4,23.4,0,0,0,3.24-18.135,23.884,23.884,0,0,0-11.126-15.167,25.112,25.112,0,0,0-33.694,7.628l-57.279,88.161a7.994,7.994,0,0,0-1.073,6.218l5.28,22.08a7.992,7.992,0,0,0,9.516,5.95l11.052-2.456A7.972,7.972,0,0,0,344,496H456a40.045,40.045,0,0,0,40-40V320A48.055,48.055,0,0,0,448,272ZM328,240H316.345a183.3,183.3,0,0,1-14.759-28.554A81.127,81.127,0,0,0,328,236.937Zm11.641-14.883A65.856,65.856,0,0,1,308.891,191a130.2,130.2,0,0,0,74.746-81.339l8.85-28.364A93.889,93.889,0,0,0,432,124.8V168a64.04,64.04,0,0,1-68.277,63.857A61.077,61.077,0,0,1,339.641,225.117ZM464,144a16.019,16.019,0,0,1-16,16V128A16.019,16.019,0,0,1,464,144Zm-15.813,51.187A185.116,185.116,0,0,1,427.648,240H408v-2.743A79.4,79.4,0,0,0,447.6,176h.4a32.14,32.14,0,0,0,4.916-.378A180.288,180.288,0,0,1,448.187,195.187ZM280,120a87.987,87.987,0,0,1,175.7-7.058A31.987,31.987,0,0,0,448,112h-6.015a77.692,77.692,0,0,1-37.68-44.463l-4.72-14.08a8,8,0,0,0-15.222.16l-16,51.276A113.637,113.637,0,0,1,280,182.836ZM106.246,480l28-112h48.692l-14,112ZM216,480H185.062l2-16H216Zm-10.446-32H189.062l2-16h17.772ZM288,400a16,16,0,0,1-9.1,14.445,14.81,14.81,0,0,1-3.31,1.114A15.977,15.977,0,0,1,272,416H193.062l6.876-55.008A8,8,0,0,0,192,352H128a8,8,0,0,0-7.761,6.06L105.754,416H48a16.019,16.019,0,0,1-16-16V256a16.019,16.019,0,0,1,16-16H272a16.019,16.019,0,0,1,16,16Zm16-128V256a32.009,32.009,0,0,0-.719-6.734c.677,1.06,1.36,2.116,2.058,3.165A8,8,0,0,0,312,256h16v16Zm97.1,31.038a34.234,34.234,0,0,1-12.319,18.02A34.466,34.466,0,0,1,334.893,303l-4.35-15.224A16.011,16.011,0,0,0,344,272V244.212a76.212,76.212,0,0,0,18.671,3.61q2.686.178,5.364.178A79.774,79.774,0,0,0,392,244.327V272a16.011,16.011,0,0,0,13.457,15.778ZM448,365.179V288a32.036,32.036,0,0,1,32,32V424.84l-20.089,2.232A69.7,69.7,0,0,0,448,365.179Zm-64.01,16.936a8.97,8.97,0,0,1,12.043-2.622,8,8,0,0,1,3.767,5.042,7.534,7.534,0,0,1-1.073,5.833L381.95,416.251l-23.147,4.63ZM328.579,467.4,336,455.978v21.444l-4.771,1.06ZM456,480H352V438.559l30.877-6.176,29.545,14.772a8.006,8.006,0,0,0,4.461.8L480,440.938V456A24.027,24.027,0,0,1,456,480Z"/><path d="M392,176H376a8,8,0,0,1-16,0H344a24,24,0,0,0,48,0Z"/><path d="M404,152a12,12,0,1,0-12-12A12.013,12.013,0,0,0,404,152Z"/><rect x="48" y="256" width="32" height="16"/><rect x="96" y="256" width="32" height="16"/><rect x="144" y="256" width="32" height="16"/><rect x="192" y="256" width="32" height="16"/><rect x="240" y="256" width="32" height="16"/></g></svg>
