<svg id="Layer_5" enable-background="new 0 0 64 64" height="512" viewBox="0 0 64 64" width="512" xmlns="http://www.w3.org/2000/svg"><g><g><g><path d="m50.498 63h-.996c-1.331 0-2.505-.85-2.921-2.114-.099-.303-.316-.54-.596-.648-.13-.051-.261-.104-.39-.161-.274-.12-.592-.105-.874.038-1.189.6-2.62.372-3.561-.57l-.704-.705c-.942-.941-1.171-2.372-.57-3.561.143-.282.156-.6.038-.873-.057-.13-.11-.261-.161-.393-.108-.278-.344-.495-.646-.594-1.267-.416-2.117-1.59-2.117-2.921v-.996c0-1.331.85-2.505 2.114-2.921.303-.099.54-.316.648-.596.051-.13.104-.261.161-.39.119-.274.105-.592-.038-.874-.601-1.188-.372-2.62.57-3.561l.704-.704c.941-.942 2.372-1.171 3.561-.57.282.143.6.156.873.038.129-.056.26-.11.391-.161.28-.109.497-.345.596-.646.417-1.267 1.591-2.117 2.922-2.117h.996c1.331 0 2.505.85 2.921 2.114.099.303.317.54.596.648.131.051.262.105.39.161.275.119.593.105.874-.038 1.188-.601 2.619-.372 3.561.57l.704.704c.942.941 1.171 2.373.57 3.561-.143.282-.156.6-.038.873.057.13.11.261.161.393.108.278.344.495.646.594 1.267.417 2.117 1.591 2.117 2.922v.996c0 1.331-.85 2.505-2.114 2.921-.303.099-.54.316-.648.596-.051.13-.104.261-.161.39-.119.274-.105.592.038.874.601 1.188.372 2.62-.57 3.561l-.705.704c-.941.942-2.373 1.17-3.561.57-.282-.144-.601-.157-.873-.038-.13.057-.261.11-.393.161-.278.108-.495.344-.594.646-.416 1.267-1.59 2.117-2.921 2.117z" fill="#f0bc5e"/></g></g><g><path d="m17 22h10v12h-10z" fill="#f0bc5e"/></g><g><path d="m41 18h14v16h-14z" fill="#f0bc5e"/></g><g><path d="m56 1h-52c-1.654 0-3 1.346-3 3v42c0 1.654 1.346 3 3 3h33.042c.134-.813.588-1.529 1.25-2h-34.292c-.551 0-1-.449-1-1v-31h54v24.579c.679.074 1.331.367 1.84.876l.16.16v-36.615c0-1.654-1.346-3-3-3zm-53 12v-9c0-.551.449-1 1-1h52c.551 0 1 .449 1 1v9z"/><path d="m42.929 49h14.142v2h-14.142z" transform="matrix(.142 -.99 .99 .142 -6.577 92.415)"/><path d="m52.293 47.707 2.293 2.293-2.293 2.293 1.414 1.414 3.707-3.707-3.707-3.707z"/><path d="m46.293 46.293-3.707 3.707 3.707 3.707 1.414-1.414-2.293-2.293 2.293-2.293z"/><path d="m5 11h6v-6h-6zm2-4h2v2h-2z"/><path d="m13 11h6v-6h-6zm2-4h2v2h-2z"/><path d="m21 11h6v-6h-6zm2-4h2v2h-2z"/><path d="m36 17h-28c-1.654 0-3 1.346-3 3v16c0 1.654 1.346 3 3 3h14.697l5.361 3.574c.419.279.905.426 1.407.426 1.398 0 2.535-1.137 2.535-2.535v-1.465h4c1.654 0 3-1.346 3-3v-16c0-1.654-1.346-3-3-3zm1 19c0 .551-.449 1-1 1h-6v3.465c0 .4-.499.666-.832.445l-5.865-3.91h-15.303c-.551 0-1-.449-1-1v-16c0-.551.449-1 1-1h28c.551 0 1 .449 1 1z"/><path d="m15 43h2v2h-2z"/><path d="m7 43h2v2h-2z"/><path d="m19 43h2v2h-2z"/><path d="m11 43h2v2h-2z"/><path d="m11 25c0 1.103-.897 2-2 2v2c1.103 0 2 .897 2 2 0 2.206 1.794 4 4 4v-2c-1.103 0-2-.897-2-2 0-1.2-.542-2.266-1.382-3 .84-.734 1.382-1.8 1.382-3 0-1.103.897-2 2-2v-2c-2.206 0-4 1.794-4 4z"/><path d="m33 25c0-2.206-1.794-4-4-4v2c1.103 0 2 .897 2 2 0 1.2.542 2.266 1.382 3-.84.734-1.382 1.8-1.382 3 0 1.103-.897 2-2 2v2c2.206 0 4-1.794 4-4 0-1.103.897-2 2-2v-2c-1.103 0-2-.897-2-2z"/><path d="m17 21h10v2h-10z"/><path d="m17 25h10v2h-10z"/><path d="m17 29h2v2h-2z"/><path d="m21 29h6v2h-6z"/><path d="m17 33h10v2h-10z"/><path d="m41 21h2v2h-2z"/><path d="m45 21h10v2h-10z"/><path d="m41 25h14v2h-14z"/><path d="m41 29h4v2h-4z"/><path d="m47 29h2v2h-2z"/><path d="m51 29h4v2h-4z"/><path d="m41 33h14v2h-14z"/><path d="m41 17h14v2h-14z"/></g></g></svg>