<svg id="Layer_1_1_" enable-background="new 0 0 64 64" height="512" viewBox="0 0 64 64" width="512" xmlns="http://www.w3.org/2000/svg"><path d="m32 54v8l-24-7v-8z" fill="#ed6571"/><path d="m56 47v8l-24 7v-8z" fill="#68607c"/><path d="m32 40 24 7-24 7-24-7z" fill="#f69489"/><path d="m31 23h2v25h-2z" fill="#68607c"/><path d="m32 49.414-4.707-4.707 1.414-1.414 3.293 3.293 3.293-3.293 1.414 1.414z" fill="#68607c"/><path d="m42 39.414-4.707-4.707 1.414-1.414 3.293 3.293 3.293-3.293 1.414 1.414z" fill="#68607c"/><path d="m43 38h-2v-4c0-2.757 2.243-5 5-5h3c1.654 0 3-1.346 3-3v-3h2v3c0 2.757-2.243 5-5 5h-3c-1.654 0-3 1.346-3 3z" fill="#68607c"/><path d="m22 39.414-4.707-4.707 1.414-1.414 3.293 3.293 3.293-3.293 1.414 1.414z" fill="#68607c"/><path d="m23 38h-2v-4c0-1.654-1.346-3-3-3h-3c-2.757 0-5-2.243-5-5v-3h2v3c0 1.654 1.346 3 3 3h3c2.757 0 5 2.243 5 5z" fill="#68607c"/><path d="m45 25v-22h10l6 6v16z" fill="#91cbd7"/><path d="m61 9h-6v-6z" fill="#4e9bb9"/><path d="m24 25v-22h10l6 6v16z" fill="#91cbd7"/><path d="m3 25v-22h10l6 6v16z" fill="#91cbd7"/><path d="m40 9h-6v-6z" fill="#4e9bb9"/><path d="m19 9h-6v-6z" fill="#4e9bb9"/><g fill="#68607c"><path d="m27 12h10v2h-10z"/><path d="m27 16h10v2h-10z"/><path d="m27 8h4v2h-4z"/><path d="m6 12h10v2h-10z"/><path d="m6 16h10v2h-10z"/><path d="m6 20h10v2h-10z"/><path d="m6 8h4v2h-4z"/><path d="m48 12h10v2h-10z"/><path d="m48 16h10v2h-10z"/><path d="m48 20h10v2h-10z"/><path d="m48 8h4v2h-4z"/><path d="m27 20h2v2h-2z"/><path d="m31 20h2v2h-2z"/><path d="m35 20h2v2h-2z"/></g></svg>