<?xml version="1.0" encoding="iso-8859-1"?>
<!-- Generator: Adobe Illustrator 19.0.0, SVG Export Plug-In . SVG Version: 6.00 Build 0)  -->
<svg version="1.1" id="Capa_1" xmlns="http://www.w3.org/2000/svg" xmlns:xlink="http://www.w3.org/1999/xlink" x="0px" y="0px"
	 viewBox="0 0 511.999 511.999" style="enable-background:new 0 0 511.999 511.999;" xml:space="preserve">
<g>
	<g>
		<path d="M415.976,366.906l-65.723-19.33l-11.657-23.314c-1.883-3.766-5.27-6.64-9.292-7.884c-3.172-0.982-6.584-0.887-9.692,0.192
			v-24.915c25.013-17.396,42.617-44.741,47.019-76.252h4.459c14.617,0,27.154-10.861,28.542-24.727
			c0.778-7.771-1.764-15.531-6.975-21.288c-2.304-2.546-5.044-4.61-8.054-6.123l8.845-53.068
			c2.946-17.676-6.14-34.599-21.685-42.104c7.007-17.812,5.468-39.914-4.661-63.548c-0.98-2.288-3.031-3.94-5.475-4.41
			c-2.443-0.47-4.962,0.302-6.722,2.062c-0.139,0.138-14.841,13.835-50.81,13.835H231.95c-31.254,0-57.879,20.128-67.638,48.097
			h-6.736c-11.653,0-22.656,5.1-30.188,13.991c-7.532,8.892-10.753,20.583-8.838,32.078l8.899,53.396
			c-8.213,4.229-14.152,12.164-15.083,21.454c-0.778,7.771,1.764,15.531,6.974,21.289c5.214,5.762,12.659,9.066,20.425,9.066h5.598
			c4.399,31.521,22.003,58.869,47.023,76.263v24.904c-3.109-1.079-6.522-1.173-9.692-0.192c-4.022,1.244-7.409,4.118-9.292,7.884
			l-11.657,23.315l-65.723,19.33c-23.498,6.911-39.909,28.844-39.909,53.338v84.254c0,4.142,3.358,7.5,7.5,7.5
			c4.142,0,7.5-3.358,7.5-7.5v-84.254c0-17.885,11.983-33.901,29.142-38.947l28.003-8.236v131.437c0,4.142,3.358,7.5,7.5,7.5
			c4.142,0,7.5-3.358,7.5-7.5v-135.85l17.064-5.019v140.868c0,4.142,3.358,7.5,7.5,7.5c4.142,0,7.5-3.358,7.5-7.5v-136l31.14,26.691
			c4.312,3.696,9.66,5.668,15.261,5.668c0.748,0,1.501-0.035,2.256-0.106c6.409-0.603,12.152-3.702,16.173-8.729l15.846-19.809
			l15.848,19.809c4.021,5.026,9.765,8.126,16.173,8.729c0.755,0.071,1.507,0.106,2.256,0.106c5.6,0,10.95-1.973,15.261-5.668
			l39.201-33.601l24.002,7.059v135.852c0,4.142,3.358,7.5,7.5,7.5c4.142,0,7.5-3.358,7.5-7.5V373.06l28.005,8.237
			c17.158,5.046,29.142,21.062,29.142,38.947v84.254c0,4.142,3.358,7.5,7.5,7.5c4.142,0,7.5-3.358,7.5-7.5v-84.254
			C455.885,395.751,439.474,373.817,415.976,366.906z M364.439,81.242c10.106,4.462,16.089,15.227,14.212,26.489l-8.765,52.591
			h-9.679c-4.705,0-8.532-3.828-8.532-8.532V93.447C356.515,90.125,360.839,86.03,364.439,81.242z M138.832,87.815
			c4.676-5.521,11.508-8.687,18.743-8.687h3.271c-0.334,2.8-0.526,5.644-0.526,8.532v64.129c0,4.705-3.828,8.532-8.532,8.532h-9.679
			l-8.765-52.59C132.155,100.594,134.155,93.335,138.832,87.815z M159.289,199.886c0-4.142-3.358-7.5-7.5-7.5
			c-4.142,0-7.5,3.358-7.5,7.5v0.516h-4.524c-3.537,0-6.927-1.506-9.303-4.131c-2.407-2.66-3.533-6.115-3.171-9.729
			c0.63-6.292,6.611-11.22,13.617-11.22h10.88c12.976,0,23.532-10.557,23.532-23.532V87.66c0-31.225,25.404-56.629,56.629-56.629
			h72.145c26.315,0,43.24-6.642,52.528-11.913c6.738,20.171,5.829,38.083-2.754,51.099c-7.415,11.245-20.028,17.959-33.741,17.959
			H199.889c-4.142,0-7.5,3.358-7.5,7.5c0,4.142,3.358,7.5,7.5,7.5h120.238c5.707,0,11.272-0.865,16.548-2.488v51.101
			c0,12.976,10.557,23.532,23.532,23.532h12.024c3.537,0,6.928,1.505,9.303,4.13c2.407,2.659,3.533,6.115,3.171,9.73
			c-0.629,6.292-6.61,11.22-13.616,11.22h-3.385v-0.439c0-4.141-3.356-7.499-7.497-7.5c0,0-0.002,0-0.003,0
			c-4.14,0-7.497,3.354-7.5,7.494c-0.039,53.286-43.421,96.638-96.706,96.638C202.672,296.595,159.289,253.212,159.289,199.886z
			 M228.438,382.653c-1.458,1.822-3.541,2.946-5.864,3.165c-2.32,0.221-4.579-0.497-6.351-2.016l-39.074-33.493l9.669-19.338
			c0.024-0.049,0.099-0.197,0.31-0.262c0.213-0.066,0.356,0.016,0.403,0.042l57.067,31.704L228.438,382.653z M207.385,324.621
			v-24.172c14.706,7.137,31.199,11.146,48.613,11.146c17.412,0,33.906-4.012,48.613-11.153v24.179l-48.613,27.007L207.385,324.621z
			 M295.774,383.801c-1.772,1.519-4.027,2.236-6.351,2.016c-2.324-0.218-4.406-1.342-5.864-3.165L267.4,362.453l57.067-31.704
			c0.047-0.026,0.194-0.108,0.403-0.042c0.211,0.065,0.285,0.214,0.31,0.262l9.669,19.338L295.774,383.801z"/>
	</g>
</g>
<g>
	<g>
		<path d="M344.173,384.772c-4.142,0-7.5,3.358-7.5,7.5v112.227c0,4.142,3.358,7.5,7.5,7.5c4.142,0,7.5-3.358,7.5-7.5V392.272
			C351.673,388.13,348.315,384.772,344.173,384.772z"/>
	</g>
</g>
<g>
	<g>
		<path d="M256.078,400.805h-0.08c-4.142,0-7.46,3.358-7.46,7.5c0,4.142,3.398,7.5,7.54,7.5c4.142,0,7.5-3.358,7.5-7.5
			C263.578,404.163,260.22,400.805,256.078,400.805z"/>
	</g>
</g>
<g>
	<g>
		<path d="M256.078,496.998h-0.08c-4.142,0-7.46,3.358-7.46,7.5c0,4.142,3.398,7.5,7.54,7.5c4.142,0,7.5-3.358,7.5-7.5
			C263.578,500.356,260.22,496.998,256.078,496.998z"/>
	</g>
</g>
<g>
	<g>
		<path d="M256.078,448.901h-0.08c-4.142,0-7.46,3.358-7.46,7.5c0,4.142,3.398,7.5,7.54,7.5c4.142,0,7.5-3.358,7.5-7.5
			C263.578,452.259,260.22,448.901,256.078,448.901z"/>
	</g>
</g>
<g>
	<g>
		<path d="M207.901,169.034c-4.142,0-7.5,3.358-7.5,7.5v8.016c0,4.142,3.358,7.5,7.5,7.5c4.142,0,7.5-3.358,7.5-7.5v-8.016
			C215.401,172.392,212.043,169.034,207.901,169.034z"/>
	</g>
</g>
<g>
	<g>
		<path d="M304.095,169.034c-4.142,0-7.5,3.358-7.5,7.5v8.016c0,4.142,3.358,7.5,7.5,7.5c4.142,0,7.5-3.358,7.5-7.5v-8.016
			C311.595,172.392,308.237,169.034,304.095,169.034z"/>
	</g>
</g>
<g>
	<g>
		<path d="M215.917,144.289h-16.032c-4.142,0-7.5,3.358-7.5,7.5c0,4.142,3.358,7.5,7.5,7.5h16.032c4.143,0,7.5-3.358,7.5-7.5
			C223.417,147.647,220.059,144.289,215.917,144.289z"/>
	</g>
</g>
<g>
	<g>
		<path d="M312.111,144.289h-16.032c-4.142,0-7.5,3.358-7.5,7.5c0,4.142,3.358,7.5,7.5,7.5h16.032c4.142,0,7.5-3.358,7.5-7.5
			C319.611,147.647,316.253,144.289,312.111,144.289z"/>
	</g>
</g>
<g>
	<g>
		<path d="M292.07,213.094h-72.145c-4.142,0-7.5,3.358-7.5,7.5c0,21.816,19.546,39.564,43.572,39.564
			c24.026,0,43.573-17.748,43.573-39.564C299.57,216.452,296.212,213.094,292.07,213.094z M255.998,245.158
			c-12.714,0-23.515-7.175-27.211-17.064h54.422C279.513,237.983,268.712,245.158,255.998,245.158z"/>
	</g>
</g>
<g>
</g>
<g>
</g>
<g>
</g>
<g>
</g>
<g>
</g>
<g>
</g>
<g>
</g>
<g>
</g>
<g>
</g>
<g>
</g>
<g>
</g>
<g>
</g>
<g>
</g>
<g>
</g>
<g>
</g>
</svg>
