<svg id="Capa_1" enable-background="new 0 0 512 512" height="512" viewBox="0 0 512 512" width="512" xmlns="http://www.w3.org/2000/svg"><g><path d="m178.606 188.034c4.143 0 7.5-3.357 7.5-7.5v-2.577c0-4.143-3.357-7.5-7.5-7.5s-7.5 3.357-7.5 7.5v2.577c0 4.142 3.357 7.5 7.5 7.5z"/><path d="m275.048 188.034c4.143 0 7.5-3.357 7.5-7.5v-2.577c0-4.143-3.357-7.5-7.5-7.5s-7.5 3.357-7.5 7.5v2.577c0 4.142 3.358 7.5 7.5 7.5z"/><path d="m226.827 245.074c13.726 0 26.079-7.613 32.241-19.868 1.861-3.7.37-8.209-3.331-10.069-3.7-1.862-8.21-.37-10.069 3.331-3.601 7.159-10.819 11.606-18.841 11.606s-15.241-4.447-18.842-11.606c-1.861-3.702-6.369-5.194-10.069-3.331-3.701 1.86-5.192 6.369-3.331 10.069 6.162 12.254 18.517 19.868 32.242 19.868z"/><path d="m424.903 364.9h-13.594v-62.055c0-12.667-10.305-22.972-22.971-22.972-12.667 0-22.972 10.305-22.972 22.972v62.055h-19.741c-1.751-4.419-3.971-8.076-6.646-10.886-13.288-13.984-35.327-21.66-53.103-25.787-.017-.004-.032-.011-.049-.016-.082-.021-.164-.033-.247-.052-1.582-.365-3.132-.704-4.635-1.014-2.93-.604-5.12-2.959-5.45-5.86l-2.671-23.547c17.254 4.652 32.517 12.02 44.331 21.434 2.7 2.146 5.94 3.189 9.163 3.188 4.296 0 8.559-1.854 11.455-5.421 53.908-66.358 50.277-153.409 28.905-212.749-32.864-91.24-107.195-103.209-137.627-104.119-40.478-1.205-78.026 13.088-89.728 33.68-20.163 7.939-38.772 30.289-51.433 61.968-1.537 3.846.335 8.21 4.182 9.748 3.848 1.535 8.21-.334 9.748-4.182 11.46-28.676 28.331-48.988 45.13-54.337 2.073-.66 3.758-2.188 4.616-4.188 6.143-14.306 38.561-28.857 77.036-27.697 17.825.533 44.414 4.718 69.854 21.625 24.397 16.215 42.603 40.636 54.11 72.584 8.158 22.648 13.574 49.582 13.734 77.711-1.302-2.43-2.969-4.682-4.974-6.687-5.357-5.356-12.479-8.306-20.053-8.306h-9.662c-.104-1.279-.213-2.567-.328-3.87 5.474.209 11.025.321 16.658.321 4.143 0 7.5-3.357 7.5-7.5s-3.357-7.5-7.5-7.5c-42.389 0-90.846-6.463-128.243-26.028-11.018-5.803-20.32-12.415-27.541-19.47-.479-.471-.958-.942-1.42-1.42-.176-.18-.351-.361-.525-.542-1.572-1.653-3.051-3.339-4.421-5.061-.052-.066-.115-.12-.169-.184-4.947-6.248-8.286-12.727-9.782-19.208-.932-4.035-4.952-6.553-8.995-5.62-4.035.932-6.552 4.959-5.62 8.995 1.762 7.632 5.26 15.073 10.34 22.169-6 16.128-21.353 26.737-38.647 26.538-.028 0-.057 0-.085 0-3.774 0-6.968 2.81-7.44 6.563-1.425 11.317-2.54 21.919-3.351 31.816h-9.657c-7.588 0-14.712 2.952-20.061 8.313-2.002 2.008-3.667 4.261-4.968 6.691-.651-19.284 1.246-38.932 5.855-58.352.957-4.03-1.534-8.073-5.564-9.029-4.035-.96-8.073 1.535-9.029 5.564-7.395 31.152-8.34 64.181-2.734 95.516 6.51 36.393 21.327 68.837 44.045 96.438 2.854 3.461 7.041 5.257 11.273 5.257 3.234 0 6.496-1.049 9.209-3.205 10.84-8.648 24.68-15.599 40.28-20.283l-2.539 22.382c-.33 2.903-2.517 5.259-5.444 5.862-1.506.311-3.06.651-4.645 1.016-.076.018-.152.028-.228.048-.016.004-.03.01-.045.015-17.781 4.125-39.833 11.803-53.119 25.785-5.001 5.255-8.316 13.1-10.135 23.983-.683 4.086 2.076 7.951 6.161 8.634.419.07.835.104 1.245.104 3.599 0 6.776-2.598 7.389-6.265 1.607-9.619 4.262-14.073 6.209-16.12 7.724-8.128 21.423-15.03 39.158-19.867 12.191 34.59 44.143 63.207 59.261 69.453.917.379 1.891.568 2.864.568.975 0 1.949-.19 2.868-.57 3.089-1.278 6.591-3.294 10.332-5.915v88.988h-108.938c-3.313-14.644-11.759-54.743-13.016-88.291-.155-4.14-3.613-7.327-7.776-7.214-4.139.155-7.369 3.637-7.214 7.776 1.62 43.2 14.236 94.845 14.772 97.022.825 3.351 3.831 5.706 7.282 5.706h299.769c8.172 0 14.819-6.648 14.819-14.82v-117.459c.001-8.172-6.647-14.82-14.818-14.82zm-28.594 69.692h-15.942v-99.454h15.942zm-2.316 15c-1.181 2.948-2.963 6.951-5.656 12.325-2.693-5.374-4.475-9.377-5.656-12.325zm-5.655-154.718c4.396 0 7.971 3.576 7.971 7.972v17.293h-15.942v-17.293c-.001-4.396 3.576-7.972 7.971-7.972zm-59.753 70.026h-49.367c1.618-2.712 3.111-5.437 4.475-8.161.159-.281.305-.57.427-.869 1.87-3.813 3.489-7.622 4.827-11.394 17.735 4.837 31.435 11.741 39.164 19.875.161.17.317.362.474.549zm-149.27-24.128c7.462-2.908 12.818-9.677 13.741-17.796l2.428-21.411c11.503 3.253 22.528 5.105 31.338 5.105 8.811 0 19.836-1.852 31.34-5.105l2.428 21.412c.922 8.116 6.279 14.883 13.741 17.792-.752 2.015-1.594 4.046-2.528 6.086-13.64 4.023-29.113 6.145-44.981 6.145-15.872 0-31.354-2.122-45.001-6.148-.91-1.999-1.747-4.027-2.506-6.08zm81.482 24.128c.214-.04.424-.085.637-.126-.03.042-.059.084-.088.126zm103.648-148.229c-4.186 31.422-15.782 62.99-38.148 90.605-9.702-7.693-21.35-14.147-34.318-19.085 12.583-6.627 27.717-16.906 33.803-30.198 3.265-7.129 5.455-16.915 6.569-29.282h8.922c9.565 0 18.032-4.764 23.172-12.04zm-23.172-29.679c3.568 0 6.923 1.39 9.446 3.913 2.524 2.523 3.914 5.878 3.914 9.446 0 7.367-5.993 13.36-13.36 13.36h-8.122c.173-8.087-.003-17.004-.521-26.72h8.643zm-158.884-67.559c33.102 31.657 87.813 44.415 133.759 47.847 4.767 51.938.519 74.597-4.004 84.468 0 .001-.001.001-.001.002-9.425 20.585-60.102 39.921-85.32 39.921-25.213 0-75.888-19.337-85.32-39.922-2.535-5.534-4.887-14.819-5.759-30.323.002-.072.011-.142.011-.215 0-.361-.034-.712-.083-1.059-.514-10.33-.381-23.346.76-39.728.03-.244.048-.492.054-.744.663-9.343 1.646-19.754 3.027-31.398 18.247-1.99 34.204-12.792 42.876-28.849zm-79.445 71.465c2.514-2.519 5.866-3.906 9.44-3.906h8.634c-.52 9.716-.7 18.635-.528 26.72h-8.105c-7.366 0-13.359-5.993-13.359-13.36-.001-3.562 1.391-6.92 3.918-9.454zm28.316 116.398c-20.695-25.251-34.414-55.856-40.48-88.603 5.206 6.123 12.957 10.018 21.604 10.018h8.909c1.114 12.354 3.301 22.143 6.572 29.284 6.366 13.894 22.614 24.496 35.499 31.076-12.095 4.828-22.988 10.987-32.104 18.225zm95.573 91.356c-8.557-4.832-23.103-17.434-34.651-33.884 11.043 2.126 22.758 3.232 34.641 3.232 6.977 0 13.897-.38 20.657-1.124-4.448 2.561-7.456 7.353-7.456 12.843v9.139c-4.783 4.238-9.431 7.688-13.191 9.794zm28.191-18.752h26.989v117.1h-26.989zm169.698 117.1h-96.199-31.51v-117.1h68.354v62.192c0 2.277 0 8.326 11.997 31.304 2.143 4.102 6.349 6.65 10.976 6.649s8.832-2.549 10.974-6.65c11.996-22.977 11.996-29.025 11.996-31.303v-62.192h13.413v117.1z"/><path d="m268.516 421.563c4.143 0 7.5-3.357 7.5-7.5v-10.214c0-4.143-3.357-7.5-7.5-7.5s-7.5 3.357-7.5 7.5v10.214c0 4.143 3.357 7.5 7.5 7.5z"/><path d="m268.516 455.339c-4.143 0-7.5 3.357-7.5 7.5v10.214c0 4.143 3.357 7.5 7.5 7.5s7.5-3.357 7.5-7.5v-10.214c0-4.142-3.358-7.5-7.5-7.5z"/><path d="m268.079 445.951h.872c4.143 0 7.5-3.357 7.5-7.5s-3.357-7.5-7.5-7.5h-.872c-4.143 0-7.5 3.357-7.5 7.5s3.358 7.5 7.5 7.5z"/></g></svg>