<svg id="Capa_1" enable-background="new 0 0 512 512" height="512" viewBox="0 0 512 512" width="512" xmlns="http://www.w3.org/2000/svg"><g><g><path d="m256 512c-2.299 0-4.597-.528-6.708-1.584l-240-120c-5.082-2.54-8.292-7.734-8.292-13.416s3.21-10.876 8.292-13.416l70-35c2.083-1.042 4.379-1.584 6.708-1.584h340c2.329 0 4.625.542 6.708 1.584l70 35c5.082 2.54 8.292 7.734 8.292 13.416s-3.21 10.876-8.292 13.416l-240 120c-2.111 1.056-4.409 1.584-6.708 1.584z" fill="#e50058"/></g><path d="m502.708 390.416c5.082-2.54 8.292-7.734 8.292-13.416s-3.21-10.876-8.292-13.416l-70-35c-2.083-1.042-4.379-1.584-6.708-1.584h-170v185c2.299 0 4.597-.528 6.708-1.584z" fill="#b41061"/><g><path d="m256 442c-2.299 0-4.597-.528-6.708-1.584l-240-120c-5.082-2.54-8.292-7.734-8.292-13.416s3.21-10.876 8.292-13.416l70-35c2.083-1.042 4.379-1.584 6.708-1.584h340c2.329 0 4.625.542 6.708 1.584l70 35c5.082 2.54 8.292 7.734 8.292 13.416s-3.21 10.876-8.292 13.416l-240 120c-2.111 1.056-4.409 1.584-6.708 1.584z" fill="#0fa7da"/></g><path d="m502.708 293.584-70-35c-2.083-1.042-4.379-1.584-6.708-1.584h-170v185c2.299 0 4.597-.528 6.708-1.584l240-120c5.082-2.54 8.292-7.734 8.292-13.416s-3.21-10.876-8.292-13.416z" fill="#0a789b"/><g><path d="m502.708 223.584-139.168-69.584-107.54 24-107.54-24-139.168 69.584c-5.082 2.54-8.292 7.734-8.292 13.416s3.21 10.876 8.292 13.416l240 120c2.111 1.056 4.409 1.584 6.708 1.584s4.597-.528 6.708-1.584l240-120c5.082-2.54 8.292-7.734 8.292-13.416s-3.21-10.876-8.292-13.416z" fill="#fff17d"/></g><path d="m262.708 370.416 240-120c5.082-2.54 8.292-7.734 8.292-13.416s-3.21-10.876-8.292-13.416l-139.168-69.584-107.54 24v194c2.299 0 4.597-.528 6.708-1.584z" fill="#ffdd54"/><g><path d="m382.423 156.029-12.3-7.102c.583-4.671.877-9.327.877-13.927s-.294-9.256-.877-13.927l12.3-7.102c3.445-1.989 5.959-5.265 6.989-9.108 1.029-3.843.49-7.937-1.499-11.382l-30-51.962c-1.989-3.445-5.266-5.959-9.108-6.989-3.837-1.029-7.936-.491-11.382 1.499l-12.353 7.131c-7.488-5.678-15.535-10.359-24.07-14v-14.16c0-8.284-6.716-15-15-15h-60c-8.284 0-15 6.716-15 15v14.16c-8.535 3.641-16.582 8.322-24.07 14l-12.353-7.131c-3.447-1.99-7.544-2.528-11.382-1.499-3.843 1.029-7.119 3.543-9.108 6.989l-30 51.962c-1.989 3.445-2.528 7.54-1.499 11.382 1.03 3.843 3.544 7.119 6.989 9.108l12.3 7.102c-.583 4.671-.877 9.327-.877 13.927s.294 9.256.877 13.927l-12.3 7.102c-3.445 1.989-5.959 5.265-6.989 9.108-1.029 3.843-.49 7.937 1.499 11.382l30 51.962c1.989 3.445 5.266 5.959 9.108 6.989 3.844 1.03 7.937.491 11.382-1.499l12.353-7.132c7.49 5.679 15.535 10.359 24.07 14v14.161c0 8.284 6.716 15 15 15h60c8.284 0 15-6.716 15-15v-14.161c8.535-3.641 16.58-8.321 24.07-14l12.353 7.132c3.444 1.989 7.542 2.528 11.382 1.499 3.843-1.029 7.119-3.543 9.108-6.989l30-51.962c1.989-3.445 2.528-7.54 1.499-11.382-1.03-3.843-3.544-7.119-6.989-9.108zm-126.423 18.971c-22.092 0-40-17.909-40-40 0-22.092 17.908-40 40-40s40 17.908 40 40c0 22.091-17.908 40-40 40z" fill="#e2dff4"/><path d="m389.412 104.863c1.029-3.843.49-7.937-1.499-11.382l-30-51.962c-1.989-3.445-5.266-5.959-9.108-6.989-3.837-1.029-7.936-.491-11.382 1.499l-12.353 7.131c-7.488-5.678-15.535-10.359-24.07-14v-14.16c0-8.284-6.716-15-15-15h-30v95c22.092 0 40 17.908 40 40 0 22.091-17.908 40-40 40v95h30c8.284 0 15-6.716 15-15v-14.161c8.535-3.641 16.58-8.321 24.07-14l12.353 7.132c3.444 1.989 7.542 2.528 11.382 1.499 3.843-1.029 7.119-3.543 9.108-6.989l30-51.962c1.989-3.445 2.528-7.54 1.499-11.382-1.03-3.843-3.544-7.119-6.989-9.108l-12.3-7.102c.583-4.671.877-9.327.877-13.927s-.294-9.256-.877-13.927l12.3-7.102c3.445-1.989 5.959-5.265 6.989-9.108z" fill="#bebcdd"/><g><path d="m256 190c-30.327 0-55-24.673-55-55s24.673-55 55-55 55 24.673 55 55-24.673 55-55 55zm0-80c-13.785 0-25 11.215-25 25s11.215 25 25 25 25-11.215 25-25-11.215-25-25-25z" fill="#fff5f5"/></g><path d="m281 135c0 13.785-11.215 25-25 25v30c30.327 0 55-24.673 55-55s-24.673-55-55-55v30c13.785 0 25 11.215 25 25z" fill="#e2dff4"/></g></g></svg>