<svg id="Capa_1" enable-background="new 0 0 512 512" height="512" viewBox="0 0 512 512" width="512" xmlns="http://www.w3.org/2000/svg"><g><path d="m314 221.5c-4.142 0-7.5 3.358-7.5 7.5v15c0 4.142 3.358 7.5 7.5 7.5s7.5-3.358 7.5-7.5v-15c0-4.142-3.358-7.5-7.5-7.5z"/><path d="m195 221.5c-4.142 0-7.5 3.358-7.5 7.5v15c0 4.142 3.358 7.5 7.5 7.5s7.5-3.358 7.5-7.5v-15c0-4.142-3.358-7.5-7.5-7.5z"/><path d="m286.254 279.621c-18.784 15.805-44.887 15.813-63.481.022-3.158-2.681-7.891-2.294-10.572.862-2.681 3.157-2.295 7.89.862 10.572 12.148 10.317 26.74 15.474 41.362 15.474 14.607 0 29.245-5.151 41.487-15.452 3.169-2.667 3.577-7.398.91-10.567s-7.399-3.578-10.568-.911z"/><path d="m443.5 53.5v-6c0-26.191-21.309-47.5-47.5-47.5h-19.5c-4.142 0-7.5 3.358-7.5 7.5s3.358 7.5 7.5 7.5h19.5c17.92 0 32.5 14.58 32.5 32.5v6c0 56.519-45.981 102.5-102.5 102.5h-144c-12.407 0-22.5 10.093-22.5 22.5v35.5c0 4.136-3.364 7.5-7.5 7.5h-7.5v-22-1c0-4.142-3.358-7.5-7.5-7.5h-16.5c-2.042 0-4.045.167-6 .478v-17.81c0-7.652-3.257-15.044-8.938-20.28-5.124-4.722-8.062-11.425-8.062-18.388 0-9.5 5.279-18.059 13.776-22.336 7.407-3.728 11.227-12.198 9.084-20.138-.57-2.115-.86-4.31-.86-6.525 0-13.785 11.215-25 25-25 4.333 0 8.599 1.124 12.336 3.25 10.075 5.731 22.766 4.278 31.579-3.613l16.068-14.385c22.5-20.154 51.526-31.253 81.731-31.253h55.286c4.142 0 7.5-3.358 7.5-7.5s-3.358-7.5-7.5-7.5h-55.286c-33.904 0-66.484 12.458-91.737 35.077l-16.067 14.383c-4.005 3.586-9.694 4.289-14.158 1.751-5.993-3.409-12.823-5.211-19.752-5.211-22.056 0-40 17.944-40 40 0 3.535.464 7.045 1.378 10.434.296 1.099-.27 2.29-1.347 2.832-13.589 6.839-22.031 20.532-22.031 35.734 0 11.141 4.701 21.863 12.896 29.417 2.608 2.404 4.104 5.775 4.104 9.25v23.682c-10.237 6.815-17 18.456-17 31.65 0 20.953 17.047 38 38 38h11.946c8.61 38.949 35.435 71.132 71.054 87.114v10.793s-20.58.001-20.899.028c-1.981.174-3.813 1.127-5.092 2.651l-14.612 17.415h-6.897c-48.248 0-87.5 39.252-87.5 87.5v12c0 15.164 12.336 27.5 27.5 27.5h38.5c4.142 0 7.5-3.358 7.5-7.5v-48.5h45v41h-17.5c-4.142 0-7.5 3.358-7.5 7.5s3.358 7.5 7.5 7.5h243.5c15.164 0 27.5-12.336 27.5-27.5v-12c0-48.248-39.252-87.5-87.5-87.5h-6.898l-14.611-17.413c-1.552-1.851-3.808-2.755-6.049-2.666.001-.005.001-.009.002-.014h-19.944v-10.793c35.619-15.982 62.445-48.164 71.054-87.114h11.946c20.953 0 38-17.047 38-38 0-13.194-6.762-24.834-17-31.65v-32.807c0-8.671-.952-17.314-2.815-25.707 22.656-21.433 36.815-51.761 36.815-85.336zm-323 198.5c-12.682 0-23-10.318-23-23s10.318-23 23-23h9v15.5h-9.5c-4.142 0-7.5 3.358-7.5 7.5s3.358 7.5 7.5 7.5h9.5v3.5c0 4.048.201 8.05.579 12zm52.712 155.711c-3.168-2.658-3.583-7.398-.924-10.566l11.891-14.172 59.751 50.137-11.891 14.172c-1.288 1.535-3.096 2.476-5.092 2.65-1.997.173-3.94-.438-5.475-1.726zm-46.212-1.657v34.946h-36.287c7.526-15.535 20.431-28 36.287-34.946zm0 90.946h-31c-6.893 0-12.5-5.607-12.5-12.5v-12c0-5.675.66-11.197 1.899-16.5h41.601zm15-56v-39.644c4.417-.867 8.98-1.325 13.642-1.348-.607 7.061 2.099 14.301 7.929 19.192l23.43 19.66v2.14zm60 15h5.425l4.406 3.697c4.089 3.432 9.148 5.266 14.424 5.266.664 0 1.331-.029 2-.087 5.987-.523 11.412-3.348 15.275-7.952l3.47-4.135v44.211h-45zm122.821-73.026 11.892 14.171c1.288 1.535 1.901 3.479 1.726 5.475-.174 1.996-1.116 3.804-2.65 5.092l-48.261 40.495c-3.17 2.659-7.91 2.243-10.567-.924l-11.891-14.172zm-2.821 58.026v-2.137l23.43-19.66c5.83-4.891 8.536-12.132 7.929-19.194 4.664.023 9.223.492 13.642 1.36v39.631zm45 15v41h-45v-41zm-101.53.925c4.444 5.297 10.828 8.028 17.254 8.028 5.104 0 10.237-1.724 14.444-5.254l4.407-3.698h5.425v41h-45v-44.211zm160.03 27.575c0 6.893-5.607 12.5-12.5 12.5h-31v-41h41.583c1.24 5.304 1.917 10.823 1.917 16.5zm-7.21-43.5h-36.29v-34.928c15.852 6.947 28.766 19.395 36.29 34.928zm-127.79-48.808-35.999 30.207-36.001-30.209v-32.482c11.406 3.436 23.489 5.292 36 5.292s24.594-1.856 36-5.292zm-36-42.192c-60.654 0-110-49.346-110-110v-3.5h7.5c12.407 0 22.5-10.093 22.5-22.5v-35.5c0-4.136 3.364-7.5 7.5-7.5h145c4.136 0 7.5 3.364 7.5 7.5v35.5c0 12.407 10.093 22.5 22.5 22.5h7.5v3.5c0 60.654-49.346 110-110 110zm134-98h-9.579c.378-3.95.579-7.952.579-12v-3.5h9.5c4.142 0 7.5-3.358 7.5-7.5s-3.358-7.5-7.5-7.5h-9.5v-15.5h9c12.682 0 23 10.318 23 23s-10.318 23-23 23zm6-87.457v26.935c-1.955-.312-3.958-.478-6-.478h-16.5c-4.142 0-7.5 3.358-7.5 7.5v23h-7.5c-4.136 0-7.5-3.364-7.5-7.5v-35.5c0-3.378-.753-6.582-2.093-9.46 16.873-3.119 32.493-9.854 46.024-19.37.708 4.908 1.069 9.884 1.069 14.873z"/></g></svg>