<?xml version="1.0" standalone="no"?>
<!DOCTYPE svg PUBLIC "-//W3C//DTD SVG 20010904//EN"
 "http://www.w3.org/TR/2001/REC-SVG-20010904/DTD/svg10.dtd">
<svg version="1.0" xmlns="http://www.w3.org/2000/svg"
 width="1301.000000pt" height="1279.000000pt" viewBox="0 0 1301.000000 1279.000000"
 preserveAspectRatio="xMidYMid meet">

<g transform="translate(0.000000,1279.000000) scale(0.100000,-0.100000)"
fill="#000000" stroke="none">
<path d="M6420 11723 c-13 -5 -105 -77 -120 -93 -3 -3 -45 -39 -94 -80 -49
-41 -149 -124 -221 -185 -116 -98 -206 -173 -369 -309 -28 -22 -68 -57 -91
-76 -23 -19 -65 -55 -95 -80 -30 -25 -86 -72 -125 -105 -38 -33 -91 -77 -117
-98 -26 -21 -53 -44 -60 -51 -7 -7 -50 -42 -96 -79 l-83 -67 -947 0 c-732 0
-952 -3 -971 -13 -39 -19 -61 -59 -71 -123 -11 -70 -41 -242 -70 -404 -12 -63
-27 -151 -35 -195 -7 -44 -21 -120 -29 -170 -9 -49 -26 -142 -37 -205 -48
-272 -60 -338 -69 -385 -13 -65 -36 -204 -56 -330 -9 -55 -21 -106 -27 -114
-12 -14 -40 -39 -228 -195 -52 -43 -107 -90 -124 -105 -16 -14 -138 -116 -269
-226 -132 -110 -285 -238 -341 -285 -55 -47 -150 -125 -210 -175 -144 -120
-267 -227 -282 -245 -24 -29 -15 -93 20 -151 18 -30 178 -306 355 -614 178
-308 327 -567 332 -575 9 -15 70 -119 125 -215 16 -27 38 -63 47 -80 54 -89
58 -105 43 -185 -8 -41 -30 -167 -50 -280 -20 -113 -44 -252 -55 -310 -18
-101 -36 -205 -79 -452 -28 -159 -59 -332 -81 -453 -60 -331 -60 -332 -4 -370
16 -11 189 -78 384 -148 195 -71 379 -137 407 -148 29 -11 77 -29 108 -40 95
-34 169 -61 205 -74 37 -13 107 -39 200 -73 30 -11 145 -53 255 -92 110 -40
210 -78 222 -86 12 -7 45 -57 75 -110 29 -53 60 -109 68 -123 9 -14 35 -60 59
-101 24 -41 65 -111 90 -155 26 -44 50 -87 54 -95 4 -8 16 -28 26 -45 10 -16
45 -75 76 -130 72 -126 83 -143 137 -235 24 -41 58 -100 75 -130 48 -86 253
-441 280 -482 46 -74 95 -84 208 -39 28 11 100 37 160 59 61 22 283 103 495
180 212 77 444 161 515 187 123 44 245 88 290 105 11 4 45 17 75 28 30 11 78
29 106 38 l52 18 203 -73 c112 -40 228 -82 256 -92 29 -11 79 -29 110 -41 32
-11 74 -26 93 -33 207 -76 368 -135 535 -195 110 -40 286 -104 390 -142 194
-71 243 -79 280 -48 8 6 62 96 121 198 59 103 128 221 152 262 25 41 55 93 67
115 12 22 57 101 100 175 43 74 94 162 113 195 19 33 42 74 52 90 10 17 34 59
55 95 71 123 78 135 94 162 16 26 78 134 114 198 11 19 28 49 38 65 10 17 27
45 36 63 17 33 45 50 128 78 22 7 72 25 110 39 39 14 84 30 102 36 18 5 45 16
60 24 15 8 33 15 39 15 10 0 234 80 279 99 17 7 196 73 745 271 47 17 140 51
207 75 153 55 157 57 176 98 15 31 15 42 -4 148 -11 63 -24 135 -30 160 -5 25
-16 86 -24 135 -14 86 -32 188 -76 434 -11 63 -23 129 -26 145 -2 17 -24 143
-49 280 -24 138 -50 286 -58 330 -8 44 -22 124 -32 178 -17 97 -17 98 3 135
46 81 63 111 127 220 36 62 66 115 66 118 0 2 11 21 24 42 79 124 707 1225
712 1249 3 15 1 40 -4 54 -6 15 -88 91 -187 175 -98 81 -189 158 -204 170 -14
12 -75 64 -136 114 -60 51 -123 104 -140 119 -16 14 -55 46 -86 71 -31 25 -80
66 -110 91 -30 26 -128 109 -219 185 -202 169 -275 231 -315 266 -16 16 -33
28 -37 28 -4 0 -14 10 -23 23 -14 23 -25 73 -64 297 -25 141 -46 261 -72 405
-11 61 -29 160 -39 220 -11 61 -29 162 -40 225 -11 63 -36 205 -55 315 -81
469 -75 444 -125 470 -25 13 -151 15 -979 15 l-950 0 -62 53 c-34 28 -81 68
-104 87 -23 19 -136 114 -250 210 -115 96 -250 209 -300 250 -87 72 -107 89
-184 156 -20 17 -108 91 -196 164 -88 74 -201 169 -252 212 -110 93 -144 109
-193 91z m147 -316 c232 -196 471 -396 533 -447 153 -125 427 -358 469 -398
30 -28 41 -46 35 -52 -7 -7 -404 -9 -1149 -8 -1042 3 -1140 4 -1143 19 -2 10
28 42 80 85 46 37 85 70 88 74 3 3 43 37 90 75 90 75 95 78 210 176 41 36 100
85 130 109 30 25 64 53 75 63 11 11 61 52 110 93 50 40 149 123 220 183 72 61
135 110 142 111 6 0 55 -37 110 -83z m1357 -1142 c26 -19 59 -46 74 -59 15
-13 86 -73 158 -132 400 -334 489 -409 494 -415 3 -4 48 -42 101 -85 109 -90
385 -321 410 -344 8 -8 57 -49 109 -90 51 -41 100 -82 109 -91 9 -9 115 -99
236 -200 121 -101 231 -193 245 -205 14 -12 66 -56 116 -97 49 -42 95 -82 101
-89 7 -7 21 -67 32 -133 12 -66 32 -183 46 -260 14 -77 29 -165 34 -195 5 -30
18 -107 30 -170 86 -482 104 -585 116 -663 8 -49 17 -96 20 -106 3 -9 11 -57
19 -106 8 -50 24 -144 36 -210 12 -66 30 -169 40 -230 11 -60 29 -162 40 -225
12 -63 28 -155 36 -205 8 -49 19 -107 24 -130 5 -22 14 -74 21 -117 l12 -76
-129 -224 c-70 -122 -149 -259 -175 -303 -26 -44 -177 -305 -335 -580 -372
-647 -382 -664 -426 -738 -20 -34 -45 -78 -56 -97 -10 -19 -28 -51 -39 -70
-11 -19 -37 -64 -58 -100 -21 -36 -46 -78 -56 -95 -10 -16 -28 -48 -40 -70
-12 -22 -44 -77 -71 -122 -41 -68 -55 -84 -90 -98 -51 -20 -659 -243 -713
-261 -22 -7 -71 -25 -110 -39 -38 -15 -106 -39 -150 -55 -44 -16 -111 -41
-150 -55 -38 -15 -92 -34 -120 -44 -27 -10 -115 -42 -195 -71 -80 -28 -174
-63 -210 -75 -36 -13 -96 -36 -135 -50 -38 -15 -133 -49 -210 -77 -255 -92
-349 -126 -490 -178 -77 -28 -151 -52 -165 -52 -14 0 -58 12 -98 26 -118 43
-203 73 -277 101 -38 14 -81 30 -95 34 -14 5 -311 113 -660 241 -349 127 -723
263 -830 302 -227 82 -297 107 -325 119 -11 5 -45 17 -75 28 -30 10 -100 35
-155 56 -55 20 -118 43 -140 51 -42 15 -54 31 -135 174 -47 84 -66 116 -129
222 -28 48 -51 89 -51 92 0 2 -22 40 -48 83 -27 43 -64 108 -84 143 -19 36
-99 175 -178 310 -164 282 -821 1424 -839 1458 -9 17 -10 36 -2 75 6 29 20
104 31 167 31 181 58 335 81 460 32 182 48 272 54 310 4 31 25 149 95 537 11
62 29 166 41 230 11 65 29 165 39 223 10 58 21 119 23 135 3 17 15 84 26 150
12 66 31 172 42 235 11 63 28 160 38 214 21 114 -3 85 224 274 169 141 189
157 431 362 114 96 227 191 251 210 23 19 121 101 216 181 96 81 208 174 249
209 41 34 86 72 100 84 14 12 66 55 115 96 50 41 92 77 95 80 3 3 73 61 155
130 83 68 152 127 155 130 3 3 43 37 90 75 47 38 87 72 90 75 3 4 16 14 30 23
23 16 127 17 1446 17 l1422 0 46 -35z m-3257 9 c2 -6 -49 -56 -114 -111 -320
-268 -448 -376 -678 -568 -221 -185 -304 -254 -395 -332 -14 -12 -72 -61 -130
-109 -221 -185 -345 -289 -350 -294 -23 -24 -74 -60 -85 -60 -18 0 -23 27 -12
75 4 22 14 78 22 125 8 47 23 139 35 205 12 66 30 167 40 225 10 58 28 158 39
223 43 244 63 354 72 412 12 73 40 207 46 218 7 12 1506 4 1510 -9z m5090 4
c9 -12 30 -122 104 -548 11 -63 29 -162 39 -220 10 -58 28 -159 40 -225 31
-175 58 -331 71 -403 8 -47 9 -66 0 -75 -13 -13 -32 0 -195 137 -66 56 -160
134 -210 175 -50 41 -122 102 -161 135 -38 34 -108 93 -155 131 -47 38 -87 72
-90 75 -3 3 -45 39 -95 80 -49 41 -92 77 -95 80 -3 3 -43 37 -90 75 -47 38
-103 85 -126 105 -56 49 -87 75 -184 155 -47 38 -89 75 -95 81 -5 6 -46 39
-89 75 -117 94 -176 150 -176 165 0 20 1492 21 1507 2z m-7197 -2193 c-11 -61
-25 -134 -31 -163 -6 -29 -17 -92 -24 -140 -8 -48 -23 -139 -35 -202 -12 -63
-27 -151 -35 -195 -7 -44 -25 -145 -40 -225 -29 -164 -87 -490 -115 -655 -47
-269 -60 -341 -64 -360 -3 -11 -10 -55 -17 -97 -11 -76 -27 -106 -48 -93 -11
6 -49 68 -139 228 -11 17 -47 82 -82 142 -35 61 -81 142 -103 180 -22 39 -59
102 -82 140 -23 39 -45 77 -48 85 -4 8 -15 29 -26 45 -10 17 -27 46 -38 65
-11 19 -37 64 -58 100 -50 87 -65 112 -117 200 -62 105 -62 107 -30 137 35 33
437 371 797 671 50 41 113 94 140 117 224 190 226 190 195 20z m7862 87 c31
-26 91 -76 135 -112 43 -35 110 -91 148 -125 39 -33 93 -78 120 -101 80 -66
171 -142 305 -255 69 -58 180 -152 248 -208 68 -57 126 -109 129 -117 4 -11
-94 -195 -168 -314 -5 -8 -32 -55 -60 -105 -28 -49 -61 -106 -72 -125 -11 -19
-33 -60 -50 -90 -16 -30 -35 -62 -42 -70 -13 -16 -95 -159 -95 -166 0 -2 -15
-27 -34 -56 -18 -29 -45 -75 -60 -103 -14 -27 -37 -68 -51 -90 -13 -22 -41
-70 -62 -107 -21 -37 -44 -70 -52 -73 -20 -8 -38 23 -45 79 -3 28 -11 76 -17
106 -5 30 -14 80 -19 110 -5 30 -21 118 -35 195 -14 77 -36 203 -50 280 -13
77 -31 181 -40 230 -9 50 -25 140 -35 200 -11 61 -29 162 -40 225 -12 63 -25
140 -30 170 -5 30 -18 107 -30 170 -27 152 -59 330 -72 407 -10 59 -7 93 9 93
4 -1 33 -22 65 -48z m-8102 -2921 c0 -5 25 -50 55 -100 30 -51 55 -93 55 -95
0 -2 17 -33 38 -67 22 -35 50 -84 64 -109 26 -47 42 -74 100 -175 330 -568
797 -1382 804 -1398 11 -31 -25 -31 -109 1 -74 27 -841 307 -1062 387 -213 77
-240 88 -249 95 -9 9 -3 55 34 260 11 63 29 165 40 225 10 61 28 160 39 220
47 263 91 514 117 669 17 102 27 121 55 105 10 -5 19 -13 19 -18z m8330 -8 c6
-21 19 -87 30 -148 42 -246 60 -345 80 -455 11 -63 25 -144 31 -180 5 -36 11
-72 14 -80 2 -8 16 -82 30 -165 14 -82 35 -201 45 -263 24 -140 25 -159 3
-170 -10 -5 -108 -42 -218 -82 -110 -40 -222 -81 -250 -91 -209 -77 -352 -129
-560 -204 -132 -47 -262 -95 -289 -105 -84 -34 -104 -23 -71 40 13 26 268 467
865 1500 84 146 166 290 183 320 36 67 75 120 87 120 5 0 14 -17 20 -37z
m-6515 -2442 c158 -58 297 -109 400 -147 55 -20 161 -58 235 -85 74 -26 167
-60 205 -74 39 -15 81 -31 95 -35 14 -5 57 -20 95 -35 39 -14 81 -30 95 -34
14 -5 102 -36 195 -71 301 -110 329 -121 415 -152 47 -17 108 -38 136 -48 80
-28 114 -48 108 -64 -3 -8 -51 -31 -107 -51 -56 -20 -149 -54 -207 -75 -58
-21 -181 -66 -275 -100 -93 -34 -206 -76 -250 -92 -44 -17 -147 -54 -230 -83
-82 -30 -188 -67 -235 -84 -47 -17 -92 -31 -101 -31 -10 0 -34 30 -61 78 -45
79 -552 955 -568 982 -9 16 -65 114 -107 188 -14 24 -22 50 -19 57 6 16 30 11
181 -44z m4825 33 c0 -9 -35 -78 -79 -153 -43 -75 -88 -153 -99 -173 -12 -20
-33 -55 -47 -78 -14 -22 -30 -51 -36 -63 -5 -12 -114 -202 -242 -422 -180
-308 -238 -401 -254 -403 -12 -2 -45 7 -75 18 -57 23 -83 33 -193 73 -38 14
-252 91 -475 172 -223 81 -448 162 -500 181 -131 48 -160 62 -160 78 0 17 -35
3 485 192 545 198 609 221 670 244 28 10 113 41 190 69 77 28 178 64 225 81
47 17 110 40 140 51 30 11 132 48 225 83 180 67 225 77 225 50z"/>
</g>
</svg>
