<?xml version="1.0" standalone="no"?>
<!DOCTYPE svg PUBLIC "-//W3C//DTD SVG 20010904//EN"
 "http://www.w3.org/TR/2001/REC-SVG-20010904/DTD/svg10.dtd">
<svg version="1.0" xmlns="http://www.w3.org/2000/svg"
 width="1385.000000pt" height="1365.000000pt" viewBox="0 0 1385.000000 1365.000000"
 preserveAspectRatio="xMidYMid meet">

<g transform="translate(0.000000,1365.000000) scale(0.100000,-0.100000)"
fill="#000000" stroke="none">
<path d="M6903 13352 c-12 -4 -113 -83 -224 -177 -111 -93 -218 -183 -239
-200 -21 -16 -134 -111 -251 -210 -118 -98 -284 -237 -369 -309 -85 -71 -182
-153 -215 -182 -33 -28 -103 -87 -156 -130 -85 -70 -396 -330 -402 -336 -1 -2
-550 -5 -1219 -8 l-1216 -5 -27 -25 c-45 -42 -41 -26 -96 -340 -11 -63 -27
-152 -35 -197 -7 -46 -21 -122 -30 -170 -8 -49 -19 -110 -24 -138 -8 -45 -21
-118 -66 -372 -7 -46 -21 -122 -30 -170 -8 -49 -19 -110 -24 -138 -5 -27 -21
-115 -35 -195 -14 -80 -30 -170 -35 -200 -11 -65 -37 -214 -50 -285 -5 -27
-15 -83 -21 -124 -15 -91 2 -74 -359 -376 -443 -370 -521 -436 -616 -515 -92
-79 -330 -278 -659 -553 -235 -197 -245 -207 -245 -267 0 -49 2 -52 135 -280
43 -74 110 -191 150 -260 40 -69 105 -181 145 -250 40 -69 132 -228 205 -355
72 -126 157 -274 189 -327 31 -54 81 -142 112 -195 32 -54 93 -159 136 -233
44 -74 90 -158 103 -185 26 -55 27 -45 -5 -222 -6 -32 -17 -94 -25 -138 -23
-134 -80 -455 -96 -545 -6 -30 -16 -91 -24 -135 -22 -125 -55 -312 -71 -405
-8 -47 -26 -148 -40 -225 -14 -77 -36 -203 -50 -280 -85 -480 -83 -468 -60
-514 18 -33 45 -52 106 -74 25 -8 88 -31 140 -50 52 -19 228 -83 390 -142 162
-58 336 -121 385 -140 176 -64 422 -154 550 -200 72 -26 173 -63 225 -82 52
-19 106 -39 120 -43 14 -4 88 -31 165 -60 77 -28 154 -56 170 -62 43 -16 61
-33 99 -102 18 -34 66 -117 106 -186 40 -69 132 -228 205 -355 73 -126 165
-286 205 -355 40 -69 133 -231 208 -360 74 -129 146 -252 158 -272 13 -21 24
-39 24 -41 0 -19 226 -392 257 -424 61 -64 58 -64 343 39 222 80 281 102 375
137 44 16 213 77 375 136 162 58 369 133 460 167 91 33 194 71 230 83 36 13
108 40 160 59 368 135 406 147 436 143 25 -4 389 -132 547 -193 52 -20 606
-221 687 -250 36 -12 110 -39 165 -59 55 -21 129 -48 165 -60 36 -13 101 -37
145 -53 334 -124 531 -192 552 -192 37 0 89 28 109 58 10 15 32 52 49 82 18
30 67 116 110 190 171 295 222 384 350 605 123 214 185 321 355 615 36 63 119
207 184 320 66 113 126 216 136 229 13 18 74 45 246 108 126 47 247 91 269 98
22 8 92 33 155 56 63 23 169 61 235 85 66 23 165 59 220 79 55 21 141 52 190
70 953 346 947 344 972 367 12 12 27 36 33 53 11 33 9 46 -45 350 -9 50 -20
113 -25 140 -20 111 -52 295 -66 375 -9 47 -22 121 -29 165 -8 44 -19 105 -24
135 -6 30 -21 120 -35 200 -14 80 -37 210 -51 290 -34 189 -43 238 -60 335 -7
44 -25 145 -39 225 -14 80 -26 156 -26 170 0 14 22 63 49 110 53 94 246 430
334 583 32 53 82 140 112 192 30 52 80 139 112 193 31 53 106 185 168 292 62
107 138 240 170 295 32 55 73 125 90 155 17 30 58 100 90 155 69 119 78 146
65 196 -10 35 -67 94 -176 180 -17 13 -128 105 -245 205 -118 99 -259 218
-315 265 -55 46 -197 165 -315 264 -118 99 -294 247 -393 330 -98 82 -229 192
-290 243 -61 52 -116 106 -123 122 -7 15 -17 54 -22 86 -22 133 -61 355 -76
439 -9 50 -32 176 -50 280 -19 105 -41 228 -49 275 -8 47 -24 137 -35 200 -11
63 -27 156 -36 205 -9 50 -20 113 -25 140 -20 111 -52 295 -66 375 -31 174
-45 256 -51 295 -8 56 -40 105 -79 121 -28 12 -233 14 -1227 14 l-1194 0 -39
29 c-21 15 -91 72 -154 125 -184 156 -449 378 -655 551 -105 88 -344 288 -530
445 -288 242 -420 352 -470 391 -16 12 -78 18 -102 11z m369 -564 c172 -144
331 -278 354 -297 22 -20 126 -107 230 -193 414 -344 529 -444 532 -462 2 -10
-2 -22 -10 -27 -18 -12 -2859 -11 -2878 1 -25 16 5 52 143 166 72 60 152 127
178 149 25 22 79 67 119 100 40 33 105 87 144 121 39 33 181 152 316 265 135
113 308 258 385 322 77 64 147 117 157 117 9 0 158 -118 330 -262z m1481
-1250 c19 -10 355 -288 601 -497 48 -42 103 -87 120 -101 18 -14 85 -70 150
-125 66 -55 237 -199 381 -320 144 -121 315 -265 380 -320 66 -55 133 -111
151 -125 29 -23 577 -483 684 -575 26 -22 96 -80 156 -130 155 -129 147 -118
168 -237 9 -57 22 -123 27 -148 5 -25 18 -99 29 -165 12 -66 33 -185 47 -265
14 -80 29 -167 34 -195 4 -27 20 -115 34 -195 14 -80 37 -208 50 -285 24 -136
49 -282 101 -570 14 -77 29 -165 34 -195 9 -54 30 -174 49 -280 6 -30 21 -120
35 -200 14 -80 37 -208 50 -285 14 -77 34 -194 46 -260 11 -66 24 -140 29
-165 5 -25 17 -89 26 -142 20 -112 26 -93 -80 -273 -75 -129 -178 -307 -300
-520 -54 -93 -123 -213 -153 -265 -30 -52 -70 -120 -87 -150 -18 -30 -93 -161
-167 -290 -126 -220 -187 -324 -361 -625 -38 -66 -129 -223 -202 -350 -73
-126 -167 -291 -210 -365 -43 -74 -109 -189 -147 -255 -38 -66 -77 -127 -86
-136 -9 -9 -44 -27 -77 -39 -130 -48 -225 -83 -615 -224 -223 -81 -445 -162
-495 -181 -49 -18 -124 -45 -165 -60 -41 -15 -115 -42 -165 -60 -49 -19 -166
-62 -260 -95 -93 -34 -269 -98 -390 -142 -121 -44 -260 -95 -310 -113 -49 -18
-148 -53 -220 -79 -71 -26 -147 -53 -167 -61 -82 -32 -485 -178 -511 -186 -28
-8 -43 -3 -337 104 -52 19 -153 56 -225 82 -71 26 -170 62 -220 80 -49 18
-166 61 -260 95 -93 34 -210 76 -260 95 -49 18 -121 44 -160 58 -224 81 -766
278 -910 332 -49 18 -130 48 -180 65 -139 50 -183 65 -285 103 -52 20 -195 72
-317 116 -123 44 -236 87 -251 95 -21 11 -57 65 -134 198 -58 101 -138 239
-178 308 -40 69 -134 231 -208 360 -221 384 -314 545 -610 1055 -57 99 -182
315 -277 480 -198 344 -297 514 -368 635 -58 97 -60 114 -33 255 9 50 28 155
42 235 14 80 29 170 35 200 5 30 16 91 24 135 7 44 20 118 29 165 8 47 24 139
36 205 11 66 32 183 46 260 14 77 29 165 34 195 8 50 30 171 75 425 25 138 32
178 60 340 14 83 30 175 36 205 5 30 16 91 24 135 7 44 20 118 29 165 8 47 24
137 35 200 11 63 27 156 36 205 23 124 34 190 46 259 16 92 -24 52 428 433
122 103 240 202 261 218 20 17 117 98 214 180 98 83 194 164 214 180 20 17
111 92 202 168 91 77 312 262 492 412 180 151 389 327 465 391 310 261 491
412 509 422 28 17 3597 17 3627 0z m-4083 -8 c23 -15 6 -34 -132 -150 -68 -58
-237 -199 -374 -315 -137 -115 -373 -313 -524 -439 -151 -126 -358 -300 -460
-386 -471 -399 -694 -580 -710 -580 -21 0 -34 31 -26 58 3 9 17 85 31 167 15
83 31 175 36 205 6 30 16 91 24 135 8 44 21 118 29 165 8 47 24 137 35 200 11
63 27 156 36 205 25 139 32 179 60 340 53 308 65 366 76 387 9 17 63 18 947
18 579 0 943 -4 952 -10z m6438 -2 c12 -15 32 -119 87 -438 14 -80 29 -170 35
-200 5 -30 17 -93 25 -140 8 -47 20 -110 25 -140 6 -30 21 -120 35 -200 14
-80 32 -183 40 -230 9 -47 20 -112 26 -145 6 -33 14 -80 19 -105 24 -119 43
-260 37 -266 -16 -16 -65 13 -160 94 -88 75 -278 235 -746 626 -58 49 -176
148 -261 220 -85 72 -177 149 -203 171 -27 22 -68 56 -92 75 -42 35 -450 378
-620 521 -157 133 -172 150 -142 162 6 3 433 6 948 6 738 1 939 -2 947 -11z
m-9078 -2623 c9 -11 7 -39 -10 -132 -11 -65 -25 -143 -30 -173 -5 -30 -21
-120 -35 -200 -14 -80 -30 -167 -35 -195 -5 -27 -16 -89 -24 -137 -9 -49 -23
-127 -31 -175 -45 -256 -67 -383 -75 -428 -8 -45 -19 -110 -66 -372 -7 -46
-21 -122 -30 -170 -8 -49 -19 -110 -24 -138 -5 -27 -21 -115 -35 -195 -14 -80
-30 -170 -35 -200 -37 -232 -63 -340 -79 -340 -15 0 -50 49 -111 155 -97 169
-241 419 -305 530 -32 55 -99 172 -150 260 -51 88 -114 198 -142 245 -187 320
-253 438 -253 452 0 17 51 63 256 234 72 60 265 222 430 360 642 538 758 634
765 634 3 0 12 -7 19 -15z m9868 -4 c27 -18 675 -559 907 -756 65 -55 137
-116 161 -135 187 -151 344 -289 350 -306 7 -25 -2 -43 -99 -209 -70 -120 -84
-145 -214 -370 -68 -118 -188 -325 -346 -600 -204 -354 -262 -451 -276 -462
-25 -19 -46 18 -61 106 -31 190 -38 229 -105 601 -14 80 -30 170 -35 200 -5
30 -21 120 -35 200 -14 80 -32 181 -40 225 -8 44 -18 105 -24 135 -5 30 -21
120 -35 200 -14 80 -32 183 -40 230 -9 47 -30 164 -46 260 -17 96 -38 213 -46
260 -8 47 -19 108 -24 135 -28 159 -40 227 -46 250 -4 15 -1 31 6 40 16 19 17
19 48 -4z m-10102 -3876 c47 -82 146 -253 219 -380 72 -126 157 -274 189 -327
31 -54 81 -141 111 -193 30 -52 79 -137 109 -187 29 -51 97 -169 151 -263 98
-171 193 -335 300 -520 70 -120 199 -344 233 -403 24 -43 24 -72 -1 -72 -8 0
-77 23 -153 51 -77 28 -170 62 -209 76 -38 13 -110 40 -160 58 -49 18 -196 72
-325 118 -239 87 -503 182 -665 242 -49 19 -124 45 -165 60 -86 31 -114 56
-105 94 4 14 11 49 15 76 5 28 16 91 25 140 45 254 67 375 75 425 8 50 30 171
75 425 28 157 36 199 45 255 5 30 16 93 24 140 8 47 25 141 37 210 12 72 28
133 37 143 15 17 16 17 33 0 10 -10 57 -85 105 -168z m10432 168 c10 -20 17
-50 37 -168 8 -44 19 -107 25 -140 20 -112 41 -230 50 -285 5 -30 21 -119 35
-197 14 -79 36 -207 50 -285 14 -79 30 -168 35 -198 14 -85 44 -252 77 -435
20 -110 21 -154 2 -166 -8 -4 -63 -26 -124 -48 -60 -22 -166 -61 -235 -86 -69
-26 -143 -52 -165 -60 -37 -12 -101 -35 -330 -120 -675 -248 -892 -325 -911
-325 -8 0 -14 10 -14 23 0 23 13 48 132 252 41 72 101 174 132 228 31 53 81
141 113 195 31 53 106 185 168 292 62 107 138 240 170 295 32 55 92 159 133
230 41 72 107 184 145 250 80 137 320 556 380 660 42 74 65 105 78 105 5 0 12
-8 17 -17z m-8113 -3156 c143 -52 368 -134 500 -182 132 -48 299 -109 370
-135 72 -26 204 -75 295 -108 289 -105 801 -292 915 -334 61 -22 148 -54 195
-70 107 -38 125 -50 111 -75 -5 -11 -25 -24 -43 -30 -18 -6 -139 -50 -268 -97
-237 -88 -291 -107 -720 -263 -293 -106 -545 -197 -632 -229 -121 -45 -112
-52 -258 201 -69 121 -169 294 -222 385 -52 91 -121 210 -153 265 -32 55 -99
172 -150 260 -178 310 -248 430 -261 450 -14 20 -19 57 -8 67 9 10 64 -8 329
-105z m5985 81 c0 -12 -31 -76 -69 -142 -65 -113 -99 -173 -278 -481 -38 -66
-123 -212 -188 -325 -65 -113 -150 -259 -188 -325 -38 -66 -96 -167 -129 -224
-73 -129 -74 -131 -108 -131 -16 0 -158 48 -317 106 -158 58 -306 111 -328
118 -22 8 -58 20 -80 29 -71 27 -223 83 -500 183 -71 26 -170 61 -220 79 -49
18 -130 47 -180 65 -101 36 -127 48 -137 64 -7 11 18 46 34 46 7 0 133 45 488
175 36 13 142 52 235 85 94 34 188 68 210 77 22 8 119 43 215 78 96 35 231 85
300 110 69 26 139 51 155 57 27 9 250 90 425 153 118 43 253 93 430 159 194
71 230 78 230 44z"/>
<path d="M3845 9248 c-3 -7 -4 -1120 -3 -2473 l3 -2460 220 0 220 0 5 517 5
518 35 34 c91 88 730 666 754 681 26 17 28 17 46 -1 10 -10 309 -386 665 -834
356 -448 668 -839 692 -867 l45 -53 214 0 214 0 21 41 c11 23 19 51 17 63 -3
11 -345 449 -760 972 -416 524 -764 963 -773 977 -16 26 -16 27 22 66 21 21
335 317 698 657 433 405 661 625 663 640 2 12 -5 39 -15 60 l-18 39 -217 3
-218 2 -42 -37 c-23 -21 -489 -447 -1036 -946 -547 -499 -997 -905 -1001 -901
-3 3 -8 749 -11 1657 l-5 1652 -218 3 c-169 2 -219 0 -222 -10z"/>
<path d="M8501 7849 c-238 -14 -420 -59 -606 -148 -297 -143 -488 -384 -546
-688 -15 -83 -6 -317 16 -403 58 -224 224 -415 462 -534 150 -75 427 -156 708
-206 253 -46 592 -123 685 -157 105 -39 229 -123 287 -195 96 -119 108 -330
27 -489 -35 -70 -137 -168 -220 -211 -164 -85 -357 -122 -644 -122 -214 -1
-324 11 -500 54 -272 67 -477 162 -672 312 -43 33 -82 58 -89 56 -15 -5 -199
-325 -199 -347 0 -21 74 -86 170 -151 111 -75 287 -156 467 -213 291 -94 466
-120 793 -121 307 0 473 22 677 89 484 161 746 510 720 960 -14 229 -95 413
-239 535 -224 192 -400 255 -1113 400 -443 90 -603 144 -730 247 -32 26 -74
67 -92 91 -87 115 -97 347 -21 496 31 60 153 177 228 218 322 176 934 161
1356 -33 82 -37 210 -111 263 -151 13 -10 27 -18 31 -18 14 0 210 348 205 362
-6 15 -142 102 -222 142 -168 83 -414 163 -603 195 -113 19 -377 43 -440 39
-14 0 -85 -5 -159 -9z"/>
</g>
</svg>
